# xmcd
#
# Track frame offsets: 
#        150
#        25095
#        44763
#        63898
#        85154
#        112861
#        128855
#        152389
#        170894
#        192478
#        212171
#
# Disc length: 3196 seconds
#
# Revision: 0
# Processed by: cddbd v1.5.2PL0 Copyright (c) Steve Scherf et al.
# Submitted via: ExactAudioCopy v1.0b3
#
DISCID=930c7a0b
DTITLE=Ngoc Son - Nu Cuoi Biet Ly
DYEAR=2009
DGENRE=
TTITLE0=Loi dang cho cuoc tinh
TTITLE1=Con duong mang ten em
TTITLE2=Thuo ay co em
TTITLE3=Tup leu ly tuong
TTITLE4=Nu cuoi biet ly
TTITLE5=Duyen kiep
TTITLE6=Tinh dau tinh cuoi
TTITLE7=Mau xanh ky niem
TTITLE8=Ai dua em ve
TTITLE9=Ve dau mai toc nguoi thuong
TTITLE10=Ngoc Son, Duy Manh - Nu cuoi biet ly
EXTD=
EXTT0=
EXTT1=
EXTT2=
EXTT3=
EXTT4=
EXTT5=
EXTT6=
EXTT7=
EXTT8=
EXTT9=
EXTT10=
PLAYORDER=
